<svg xmlns="http://www.w3.org/2000/svg" xmlns:xlink="http://www.w3.org/1999/xlink" width="500" zoomAndPan="magnify" viewBox="0 0 375 374.999991" height="500" preserveAspectRatio="xMidYMid meet" version="1.0"><defs><g/><clipPath id="id1"><path d="M 47.429688 127.035156 L 327.929688 127.035156 L 327.929688 232 L 47.429688 232 Z M 47.429688 127.035156 " clip-rule="nonzero"/></clipPath><clipPath id="id2"><path d="M 47.429688 127.035156 L 327.929688 127.035156 L 327.929688 245.535156 L 47.429688 245.535156 Z M 47.429688 127.035156 " clip-rule="nonzero"/></clipPath></defs><g clip-path="url(#id1)"><path fill="#fc5658" d="M 327.617188 178.957031 L 327.617188 179.171875 C 327.617188 179.246094 327.617188 179.246094 327.617188 179.316406 C 327.617188 208.203125 304.15625 231.597656 275.191406 231.597656 L 100.167969 231.597656 C 71.203125 231.597656 47.742188 208.128906 47.742188 179.316406 C 47.742188 179.171875 47.742188 179.101562 47.742188 178.957031 C 47.742188 178.8125 47.742188 178.738281 47.742188 178.59375 C 48.175781 150.070312 71.421875 127.035156 100.167969 127.035156 L 275.191406 127.035156 C 275.191406 127.035156 275.191406 127.035156 275.261719 127.035156 C 304.011719 127.035156 327.398438 150.214844 327.617188 178.957031 Z M 327.617188 178.957031 L 327.617188 179.171875 C 327.617188 179.246094 327.617188 179.246094 327.617188 179.316406 C 327.617188 208.203125 304.15625 231.597656 275.191406 231.597656 L 100.167969 231.597656 C 71.203125 231.597656 47.742188 208.128906 47.742188 179.316406 C 47.742188 179.171875 47.742188 179.101562 47.742188 178.957031 C 47.742188 178.8125 47.742188 178.738281 47.742188 178.59375 C 48.175781 150.070312 71.421875 127.035156 100.167969 127.035156 L 275.191406 127.035156 C 275.191406 127.035156 275.191406 127.035156 275.261719 127.035156 C 304.011719 127.035156 327.398438 150.214844 327.617188 178.957031 Z M 327.617188 178.957031 " fill-opacity="1" fill-rule="nonzero"/></g><path fill="#1f1347" d="M 126.960938 157.21875 L 136.59375 157.21875 C 139.5625 157.21875 141.878906 158.085938 143.617188 159.820312 C 145.355469 161.550781 146.222656 163.933594 146.222656 166.824219 L 146.222656 171.589844 C 146.222656 174.550781 145.355469 176.863281 143.617188 178.59375 C 141.878906 180.328125 139.5625 181.195312 136.59375 181.195312 L 133.117188 181.195312 L 133.117188 197.585938 L 126.960938 197.585938 C 126.960938 197.585938 126.960938 157.21875 126.960938 157.21875 Z M 136.230469 175.488281 C 137.460938 175.488281 138.328125 175.128906 138.980469 174.476562 C 139.632812 173.828125 139.996094 172.890625 139.996094 171.734375 L 139.996094 166.75 C 139.996094 165.523438 139.632812 164.65625 138.980469 164.007812 C 138.328125 163.359375 137.386719 162.996094 136.230469 162.996094 L 133.042969 162.996094 L 133.042969 175.488281 Z M 159.980469 157.21875 L 166.136719 157.21875 L 166.136719 191.882812 L 177.070312 191.882812 L 177.070312 197.660156 L 159.980469 197.660156 Z M 203.210938 188.703125 L 196.621094 188.703125 L 195.320312 197.660156 L 189.164062 197.660156 L 195.898438 157.21875 L 204.152344 157.21875 L 210.886719 197.660156 L 204.660156 197.660156 Z M 202.414062 182.78125 L 199.953125 165.886719 L 197.492188 182.78125 Z M 242.171875 157.21875 L 233.914062 180.761719 L 233.914062 197.660156 L 227.761719 197.660156 L 227.761719 180.761719 L 219.503906 157.21875 L 226.023438 157.21875 L 230.800781 172.671875 L 235.652344 157.21875 C 235.652344 157.21875 242.171875 157.21875 242.171875 157.21875 Z M 242.171875 157.21875 " fill-opacity="1" fill-rule="nonzero"/><g clip-path="url(#id2)"><path fill="#1f1347" d="M 275.261719 127.035156 C 275.191406 127.035156 275.191406 127.035156 275.261719 127.035156 L 100.167969 127.035156 C 71.421875 127.035156 48.175781 150.070312 47.742188 178.59375 C 47.742188 178.738281 47.742188 178.8125 47.742188 178.957031 C 47.742188 179.101562 47.742188 179.171875 47.742188 179.316406 C 47.742188 180.6875 47.8125 181.988281 47.886719 183.289062 L 47.742188 183.289062 L 47.742188 192.53125 C 47.742188 192.675781 47.742188 192.75 47.742188 192.890625 C 47.742188 193.035156 47.742188 193.109375 47.742188 193.253906 C 47.742188 222.066406 71.203125 245.535156 100.167969 245.535156 L 275.191406 245.535156 C 304.15625 245.535156 327.617188 222.136719 327.617188 193.253906 C 327.617188 193.179688 327.617188 193.179688 327.617188 193.109375 L 327.617188 183.289062 L 327.472656 183.289062 C 327.546875 181.988281 327.617188 180.6875 327.617188 179.316406 C 327.617188 179.246094 327.617188 179.246094 327.617188 179.171875 L 327.617188 178.957031 C 327.398438 150.214844 304.011719 127.035156 275.261719 127.035156 Z M 54.984375 178.957031 L 54.984375 178.667969 C 55.199219 166.75 59.980469 155.632812 68.453125 147.253906 C 76.921875 138.878906 88.21875 134.257812 100.167969 134.257812 L 275.261719 134.257812 C 287.210938 134.257812 298.507812 138.878906 307.050781 147.328125 C 315.523438 155.777344 320.304688 166.96875 320.375 178.957031 L 320.375 179.316406 C 320.375 204.15625 300.101562 224.378906 275.191406 224.378906 L 100.167969 224.378906 C 75.257812 224.378906 54.984375 204.15625 54.984375 179.316406 Z M 54.984375 178.957031 " fill-opacity="1" fill-rule="nonzero"/></g><path fill="#fc5658" d="M 107.25 146.683594 L 267.722656 146.683594 L 267.722656 207.433594 L 107.25 207.433594 L 107.25 146.683594 " fill-opacity="1" fill-rule="nonzero"/><g fill="#fd6155" fill-opacity="0.302"><g transform="translate(130.099893, 220.272024)"><g><path d="M 21.148438 -62.074219 C 19.320312 -61.757812 17.039062 -60.957031 15.613281 -59.496094 C 15.105469 -61.628906 12.699219 -62.691406 10.351562 -62.28125 C 8 -61.871094 5.8125 -60.144531 5.203125 -56.675781 L -3.074219 -6.460938 C -3.199219 -5.632812 -3.269531 -4.878906 -3.15625 -4.226562 C -2.65625 -1.355469 0.0664062 -0.0117188 2.675781 -0.464844 C 4.832031 -0.839844 6.890625 -2.542969 7.402344 -5.796875 L 9.535156 -19.421875 C 12.195312 -17.664062 15.765625 -16.871094 19.421875 -17.507812 C 25.820312 -18.621094 32.058594 -23.746094 33.554688 -32.546875 L 36.191406 -47.941406 C 36.492188 -49.675781 36.523438 -51.429688 36.273438 -52.867188 C 34.96875 -60.375 28.332031 -63.324219 21.148438 -62.074219 Z M 25.40625 -45.730469 L 23.460938 -33.347656 C 22.917969 -29.890625 20.730469 -27.761719 18.183594 -27.316406 C 15.3125 -26.816406 12.585938 -28.5625 12.074219 -31.5 C 11.984375 -32.023438 11.980469 -32.425781 12.085938 -32.984375 L 14.285156 -47.023438 C 14.898438 -50.828125 17.359375 -52.535156 19.972656 -52.992188 C 22.585938 -53.445312 24.839844 -52.089844 25.386719 -48.953125 C 25.53125 -48.105469 25.582031 -47.039062 25.40625 -45.730469 Z M 25.40625 -45.730469 "/></g></g></g><g fill="#fd6155" fill-opacity="0.302"><g transform="translate(167.901535, 213.692028)"><g><path d="M 7.09375 -12.199219 L 13.894531 -54.285156 C 14.019531 -55.117188 14.011719 -55.921875 13.898438 -56.574219 C 13.46875 -59.054688 10.832031 -60.28125 8.875 -59.9375 C 6.394531 -59.507812 5 -57.851562 4.464844 -54.730469 L -2.363281 -13.582031 C -2.625 -11.988281 -2.648438 -10.570312 -2.410156 -9.199219 C -1.363281 -3.195312 4.179688 -0.726562 9.925781 -1.726562 C 16.128906 -2.808594 23.226562 -8.011719 25.433594 -22.390625 C 25.484375 -22.871094 25.472656 -23.335938 25.402344 -23.730469 C 25.039062 -25.820312 22.949219 -27.003906 20.925781 -26.648438 C 19.292969 -26.367188 17.699219 -25.078125 17.207031 -22.503906 C 15.632812 -14.15625 12.425781 -10.167969 9.355469 -9.632812 C 8.050781 -9.40625 7.195312 -10.066406 7.023438 -11.042969 C 6.980469 -11.304688 7.03125 -11.785156 7.09375 -12.199219 Z M 7.09375 -12.199219 "/></g></g></g><g fill="#fd6155" fill-opacity="0.302"><g transform="translate(186.116839, 210.521355)"><g><path d="M 37.097656 -29.195312 C 35.269531 -28.878906 33.441406 -27.414062 33.085938 -24.796875 C 31.9375 -16.324219 28.292969 -12.929688 25.351562 -12.417969 C 24.242188 -12.226562 23.488281 -12.699219 23.304688 -13.746094 C 23.214844 -14.265625 23.230469 -14.941406 23.304688 -15.695312 L 26.933594 -38.125 C 27.058594 -38.953125 27.0625 -39.695312 26.949219 -40.347656 C 26.449219 -43.21875 23.839844 -44.3125 21.421875 -43.890625 C 19.59375 -43.574219 17.847656 -42.394531 17.085938 -40.582031 C 15.570312 -41.191406 12.851562 -41.726562 9.523438 -41.148438 C 5.210938 -40.398438 0.921875 -37.226562 0.03125 -31.894531 L -3.046875 -13.261719 C -3.234375 -12.015625 -3.292969 -10.796875 -3.085938 -9.621094 C -2.144531 -4.203125 3.003906 -0.523438 8.75 -1.523438 C 11.820312 -2.058594 14.714844 -3.972656 16.753906 -6.550781 C 19.367188 -3.910156 24.09375 -4.195312 26.054688 -4.535156 C 31.472656 -5.476562 38.242188 -9.480469 40.582031 -20.789062 C 41.050781 -23.492188 41.484375 -25.25 41.28125 -26.425781 C 40.894531 -28.644531 38.992188 -29.527344 37.097656 -29.195312 Z M 15.4375 -26.097656 L 13.996094 -15.824219 C 13.363281 -11.339844 11.054688 -9.929688 9.683594 -9.691406 C 8.246094 -9.441406 7.367188 -10.230469 7.105469 -11.730469 C 6.960938 -12.582031 7.019531 -13.398438 7.113281 -14.019531 L 9.007812 -27.871094 C 9.554688 -32.070312 11.292969 -32.910156 12.335938 -33.09375 C 13.578125 -33.308594 15.164062 -32.308594 15.550781 -30.085938 C 15.722656 -29.109375 15.675781 -27.820312 15.4375 -26.097656 Z M 15.4375 -26.097656 "/></g></g></g><g fill="#fd6155" fill-opacity="0.302"><g transform="translate(220.392937, 204.555038)"><g><path d="M 7.054688 -12.800781 L 10.722656 -34.628906 C 10.859375 -35.394531 10.875 -36.070312 10.761719 -36.722656 C 10.296875 -39.398438 7.628906 -40.816406 5.210938 -40.398438 C 3.382812 -40.078125 1.617188 -38.628906 1.160156 -35.855469 L -2.832031 -12.019531 C -3.074219 -10.699219 -3.054688 -9.425781 -2.847656 -8.25 C -2.074219 -3.808594 1.613281 -1.15625 6.007812 -1.046875 C -1.652344 2.105469 -8.984375 6.742188 -7.585938 14.773438 C -6.484375 21.109375 0.121094 24.265625 6.519531 23.152344 C 12.984375 22.027344 18.453125 17.507812 19.878906 9.457031 C 20.3125 6.554688 20.859375 3.5 21.371094 0.652344 C 30.199219 -3.910156 38.910156 -10.675781 41.027344 -25.171875 C 41.132812 -25.726562 41.109375 -26.261719 41.027344 -26.71875 C 40.640625 -28.9375 38.71875 -29.949219 36.757812 -29.609375 C 34.996094 -29.300781 33.292969 -27.863281 32.824219 -25.15625 C 31.566406 -18.074219 27.875 -13.394531 23.234375 -9.898438 L 27.816406 -38.074219 C 27.910156 -38.695312 27.882812 -39.230469 27.804688 -39.6875 C 27.339844 -42.363281 24.671875 -43.785156 22.253906 -43.363281 C 20.425781 -43.046875 18.660156 -41.59375 18.199219 -38.824219 L 14.535156 -15.445312 C 13.058594 -11.558594 11 -9.851562 9.238281 -9.546875 C 8.0625 -9.339844 7.21875 -9.933594 7.011719 -11.109375 C 6.933594 -11.566406 6.960938 -12.175781 7.054688 -12.800781 Z M 9.945312 5.734375 L 9.152344 10.449219 C 8.65625 13.023438 6.851562 14.617188 4.890625 14.957031 C 3.390625 15.21875 2.578125 14.417969 2.371094 13.242188 C 2.304688 12.851562 2.277344 12.316406 2.394531 11.828125 C 2.910156 9.382812 5.894531 7.585938 9.945312 5.734375 Z M 9.945312 5.734375 "/></g></g></g><g fill="#fd6155" fill-opacity="0.502"><g transform="translate(127.002847, 216.817205)"><g><path d="M 21.148438 -62.074219 C 19.320312 -61.757812 17.039062 -60.957031 15.613281 -59.496094 C 15.105469 -61.628906 12.699219 -62.691406 10.351562 -62.28125 C 8 -61.871094 5.8125 -60.144531 5.203125 -56.675781 L -3.074219 -6.460938 C -3.199219 -5.632812 -3.269531 -4.878906 -3.15625 -4.226562 C -2.65625 -1.355469 0.0664062 -0.0117188 2.675781 -0.464844 C 4.832031 -0.839844 6.890625 -2.542969 7.402344 -5.796875 L 9.535156 -19.421875 C 12.195312 -17.664062 15.765625 -16.871094 19.421875 -17.507812 C 25.820312 -18.621094 32.058594 -23.746094 33.554688 -32.546875 L 36.191406 -47.941406 C 36.492188 -49.675781 36.523438 -51.429688 36.273438 -52.867188 C 34.96875 -60.375 28.332031 -63.324219 21.148438 -62.074219 Z M 25.40625 -45.730469 L 23.460938 -33.347656 C 22.917969 -29.890625 20.730469 -27.761719 18.183594 -27.316406 C 15.3125 -26.816406 12.585938 -28.5625 12.074219 -31.5 C 11.984375 -32.023438 11.980469 -32.425781 12.085938 -32.984375 L 14.285156 -47.023438 C 14.898438 -50.828125 17.359375 -52.535156 19.972656 -52.992188 C 22.585938 -53.445312 24.839844 -52.089844 25.386719 -48.953125 C 25.53125 -48.105469 25.582031 -47.039062 25.40625 -45.730469 Z M 25.40625 -45.730469 "/></g></g></g><g fill="#fd6155" fill-opacity="0.502"><g transform="translate(164.804489, 210.237209)"><g><path d="M 7.09375 -12.199219 L 13.894531 -54.285156 C 14.019531 -55.117188 14.011719 -55.921875 13.898438 -56.574219 C 13.46875 -59.054688 10.832031 -60.28125 8.875 -59.9375 C 6.394531 -59.507812 5 -57.851562 4.464844 -54.730469 L -2.363281 -13.582031 C -2.625 -11.988281 -2.648438 -10.570312 -2.410156 -9.199219 C -1.363281 -3.195312 4.179688 -0.726562 9.925781 -1.726562 C 16.128906 -2.808594 23.226562 -8.011719 25.433594 -22.390625 C 25.484375 -22.871094 25.472656 -23.335938 25.402344 -23.730469 C 25.039062 -25.820312 22.949219 -27.003906 20.925781 -26.648438 C 19.292969 -26.367188 17.699219 -25.078125 17.207031 -22.503906 C 15.632812 -14.15625 12.425781 -10.167969 9.355469 -9.632812 C 8.050781 -9.40625 7.195312 -10.066406 7.023438 -11.042969 C 6.980469 -11.304688 7.03125 -11.785156 7.09375 -12.199219 Z M 7.09375 -12.199219 "/></g></g></g><g fill="#fd6155" fill-opacity="0.502"><g transform="translate(183.019793, 207.066536)"><g><path d="M 37.097656 -29.195312 C 35.269531 -28.878906 33.441406 -27.414062 33.085938 -24.796875 C 31.9375 -16.324219 28.292969 -12.929688 25.351562 -12.417969 C 24.242188 -12.226562 23.488281 -12.699219 23.304688 -13.746094 C 23.214844 -14.265625 23.230469 -14.941406 23.304688 -15.695312 L 26.933594 -38.125 C 27.058594 -38.953125 27.0625 -39.695312 26.949219 -40.347656 C 26.449219 -43.21875 23.839844 -44.3125 21.421875 -43.890625 C 19.59375 -43.574219 17.847656 -42.394531 17.085938 -40.582031 C 15.570312 -41.191406 12.851562 -41.726562 9.523438 -41.148438 C 5.210938 -40.398438 0.921875 -37.226562 0.03125 -31.894531 L -3.046875 -13.261719 C -3.234375 -12.015625 -3.292969 -10.796875 -3.085938 -9.621094 C -2.144531 -4.203125 3.003906 -0.523438 8.75 -1.523438 C 11.820312 -2.058594 14.714844 -3.972656 16.753906 -6.550781 C 19.367188 -3.910156 24.09375 -4.195312 26.054688 -4.535156 C 31.472656 -5.476562 38.242188 -9.480469 40.582031 -20.789062 C 41.050781 -23.492188 41.484375 -25.25 41.28125 -26.425781 C 40.894531 -28.644531 38.992188 -29.527344 37.097656 -29.195312 Z M 15.4375 -26.097656 L 13.996094 -15.824219 C 13.363281 -11.339844 11.054688 -9.929688 9.683594 -9.691406 C 8.246094 -9.441406 7.367188 -10.230469 7.105469 -11.730469 C 6.960938 -12.582031 7.019531 -13.398438 7.113281 -14.019531 L 9.007812 -27.871094 C 9.554688 -32.070312 11.292969 -32.910156 12.335938 -33.09375 C 13.578125 -33.308594 15.164062 -32.308594 15.550781 -30.085938 C 15.722656 -29.109375 15.675781 -27.820312 15.4375 -26.097656 Z M 15.4375 -26.097656 "/></g></g></g><g fill="#fd6155" fill-opacity="0.502"><g transform="translate(217.295891, 201.100219)"><g><path d="M 7.054688 -12.800781 L 10.722656 -34.628906 C 10.859375 -35.394531 10.875 -36.070312 10.761719 -36.722656 C 10.296875 -39.398438 7.628906 -40.816406 5.210938 -40.398438 C 3.382812 -40.078125 1.617188 -38.628906 1.160156 -35.855469 L -2.832031 -12.019531 C -3.074219 -10.699219 -3.054688 -9.425781 -2.847656 -8.25 C -2.074219 -3.808594 1.613281 -1.15625 6.007812 -1.046875 C -1.652344 2.105469 -8.984375 6.742188 -7.585938 14.773438 C -6.484375 21.109375 0.121094 24.265625 6.519531 23.152344 C 12.984375 22.027344 18.453125 17.507812 19.878906 9.457031 C 20.3125 6.554688 20.859375 3.5 21.371094 0.652344 C 30.199219 -3.910156 38.910156 -10.675781 41.027344 -25.171875 C 41.132812 -25.726562 41.109375 -26.261719 41.027344 -26.71875 C 40.640625 -28.9375 38.71875 -29.949219 36.757812 -29.609375 C 34.996094 -29.300781 33.292969 -27.863281 32.824219 -25.15625 C 31.566406 -18.074219 27.875 -13.394531 23.234375 -9.898438 L 27.816406 -38.074219 C 27.910156 -38.695312 27.882812 -39.230469 27.804688 -39.6875 C 27.339844 -42.363281 24.671875 -43.785156 22.253906 -43.363281 C 20.425781 -43.046875 18.660156 -41.59375 18.199219 -38.824219 L 14.535156 -15.445312 C 13.058594 -11.558594 11 -9.851562 9.238281 -9.546875 C 8.0625 -9.339844 7.21875 -9.933594 7.011719 -11.109375 C 6.933594 -11.566406 6.960938 -12.175781 7.054688 -12.800781 Z M 9.945312 5.734375 L 9.152344 10.449219 C 8.65625 13.023438 6.851562 14.617188 4.890625 14.957031 C 3.390625 15.21875 2.578125 14.417969 2.371094 13.242188 C 2.304688 12.851562 2.277344 12.316406 2.394531 11.828125 C 2.910156 9.382812 5.894531 7.585938 9.945312 5.734375 Z M 9.945312 5.734375 "/></g></g></g><g fill="#f6f3e4" fill-opacity="1"><g transform="translate(123.905796, 213.362369)"><g><path d="M 21.148438 -62.074219 C 19.320312 -61.757812 17.039062 -60.957031 15.613281 -59.496094 C 15.105469 -61.628906 12.699219 -62.691406 10.351562 -62.28125 C 8 -61.871094 5.8125 -60.144531 5.203125 -56.675781 L -3.074219 -6.460938 C -3.199219 -5.632812 -3.269531 -4.878906 -3.15625 -4.226562 C -2.65625 -1.355469 0.0664062 -0.0117188 2.675781 -0.464844 C 4.832031 -0.839844 6.890625 -2.542969 7.402344 -5.796875 L 9.535156 -19.421875 C 12.195312 -17.664062 15.765625 -16.871094 19.421875 -17.507812 C 25.820312 -18.621094 32.058594 -23.746094 33.554688 -32.546875 L 36.191406 -47.941406 C 36.492188 -49.675781 36.523438 -51.429688 36.273438 -52.867188 C 34.96875 -60.375 28.332031 -63.324219 21.148438 -62.074219 Z M 25.40625 -45.730469 L 23.460938 -33.347656 C 22.917969 -29.890625 20.730469 -27.761719 18.183594 -27.316406 C 15.3125 -26.816406 12.585938 -28.5625 12.074219 -31.5 C 11.984375 -32.023438 11.980469 -32.425781 12.085938 -32.984375 L 14.285156 -47.023438 C 14.898438 -50.828125 17.359375 -52.535156 19.972656 -52.992188 C 22.585938 -53.445312 24.839844 -52.089844 25.386719 -48.953125 C 25.53125 -48.105469 25.582031 -47.039062 25.40625 -45.730469 Z M 25.40625 -45.730469 "/></g></g></g><g fill="#f6f3e4" fill-opacity="1"><g transform="translate(161.707438, 206.782373)"><g><path d="M 7.09375 -12.199219 L 13.894531 -54.285156 C 14.019531 -55.117188 14.011719 -55.921875 13.898438 -56.574219 C 13.46875 -59.054688 10.832031 -60.28125 8.875 -59.9375 C 6.394531 -59.507812 5 -57.851562 4.464844 -54.730469 L -2.363281 -13.582031 C -2.625 -11.988281 -2.648438 -10.570312 -2.410156 -9.199219 C -1.363281 -3.195312 4.179688 -0.726562 9.925781 -1.726562 C 16.128906 -2.808594 23.226562 -8.011719 25.433594 -22.390625 C 25.484375 -22.871094 25.472656 -23.335938 25.402344 -23.730469 C 25.039062 -25.820312 22.949219 -27.003906 20.925781 -26.648438 C 19.292969 -26.367188 17.699219 -25.078125 17.207031 -22.503906 C 15.632812 -14.15625 12.425781 -10.167969 9.355469 -9.632812 C 8.050781 -9.40625 7.195312 -10.066406 7.023438 -11.042969 C 6.980469 -11.304688 7.03125 -11.785156 7.09375 -12.199219 Z M 7.09375 -12.199219 "/></g></g></g><g fill="#f6f3e4" fill-opacity="1"><g transform="translate(179.922742, 203.611701)"><g><path d="M 37.097656 -29.195312 C 35.269531 -28.878906 33.441406 -27.414062 33.085938 -24.796875 C 31.9375 -16.324219 28.292969 -12.929688 25.351562 -12.417969 C 24.242188 -12.226562 23.488281 -12.699219 23.304688 -13.746094 C 23.214844 -14.265625 23.230469 -14.941406 23.304688 -15.695312 L 26.933594 -38.125 C 27.058594 -38.953125 27.0625 -39.695312 26.949219 -40.347656 C 26.449219 -43.21875 23.839844 -44.3125 21.421875 -43.890625 C 19.59375 -43.574219 17.847656 -42.394531 17.085938 -40.582031 C 15.570312 -41.191406 12.851562 -41.726562 9.523438 -41.148438 C 5.210938 -40.398438 0.921875 -37.226562 0.03125 -31.894531 L -3.046875 -13.261719 C -3.234375 -12.015625 -3.292969 -10.796875 -3.085938 -9.621094 C -2.144531 -4.203125 3.003906 -0.523438 8.75 -1.523438 C 11.820312 -2.058594 14.714844 -3.972656 16.753906 -6.550781 C 19.367188 -3.910156 24.09375 -4.195312 26.054688 -4.535156 C 31.472656 -5.476562 38.242188 -9.480469 40.582031 -20.789062 C 41.050781 -23.492188 41.484375 -25.25 41.28125 -26.425781 C 40.894531 -28.644531 38.992188 -29.527344 37.097656 -29.195312 Z M 15.4375 -26.097656 L 13.996094 -15.824219 C 13.363281 -11.339844 11.054688 -9.929688 9.683594 -9.691406 C 8.246094 -9.441406 7.367188 -10.230469 7.105469 -11.730469 C 6.960938 -12.582031 7.019531 -13.398438 7.113281 -14.019531 L 9.007812 -27.871094 C 9.554688 -32.070312 11.292969 -32.910156 12.335938 -33.09375 C 13.578125 -33.308594 15.164062 -32.308594 15.550781 -30.085938 C 15.722656 -29.109375 15.675781 -27.820312 15.4375 -26.097656 Z M 15.4375 -26.097656 "/></g></g></g><g fill="#f6f3e4" fill-opacity="1"><g transform="translate(214.19884, 197.645384)"><g><path d="M 7.054688 -12.800781 L 10.722656 -34.628906 C 10.859375 -35.394531 10.875 -36.070312 10.761719 -36.722656 C 10.296875 -39.398438 7.628906 -40.816406 5.210938 -40.398438 C 3.382812 -40.078125 1.617188 -38.628906 1.160156 -35.855469 L -2.832031 -12.019531 C -3.074219 -10.699219 -3.054688 -9.425781 -2.847656 -8.25 C -2.074219 -3.808594 1.613281 -1.15625 6.007812 -1.046875 C -1.652344 2.105469 -8.984375 6.742188 -7.585938 14.773438 C -6.484375 21.109375 0.121094 24.265625 6.519531 23.152344 C 12.984375 22.027344 18.453125 17.507812 19.878906 9.457031 C 20.3125 6.554688 20.859375 3.5 21.371094 0.652344 C 30.199219 -3.910156 38.910156 -10.675781 41.027344 -25.171875 C 41.132812 -25.726562 41.109375 -26.261719 41.027344 -26.71875 C 40.640625 -28.9375 38.71875 -29.949219 36.757812 -29.609375 C 34.996094 -29.300781 33.292969 -27.863281 32.824219 -25.15625 C 31.566406 -18.074219 27.875 -13.394531 23.234375 -9.898438 L 27.816406 -38.074219 C 27.910156 -38.695312 27.882812 -39.230469 27.804688 -39.6875 C 27.339844 -42.363281 24.671875 -43.785156 22.253906 -43.363281 C 20.425781 -43.046875 18.660156 -41.59375 18.199219 -38.824219 L 14.535156 -15.445312 C 13.058594 -11.558594 11 -9.851562 9.238281 -9.546875 C 8.0625 -9.339844 7.21875 -9.933594 7.011719 -11.109375 C 6.933594 -11.566406 6.960938 -12.175781 7.054688 -12.800781 Z M 9.945312 5.734375 L 9.152344 10.449219 C 8.65625 13.023438 6.851562 14.617188 4.890625 14.957031 C 3.390625 15.21875 2.578125 14.417969 2.371094 13.242188 C 2.304688 12.851562 2.277344 12.316406 2.394531 11.828125 C 2.910156 9.382812 5.894531 7.585938 9.945312 5.734375 Z M 9.945312 5.734375 "/></g></g></g></svg>